<svg width="200" height="200" fill="#e66f22" viewBox="0 0 200 200" xmlns="http://www.w3.org/2000/svg">
    <defs>
      <clipPath id="dddivided-clip1"><rect width="54%" height="100%" x="0" y="0"></rect></clipPath>
      <clipPath id="dddivided-clip2"><rect width="46%" height="100%" x="54%" y="0"></rect></clipPath>
    </defs> 
    <path fill="#417505" clip-path="url(#dddivided-clip1)" transform="translate(13,4)" d="M153.525 68.704c-7.265 12.116-.158 28.921 15.032 30.984l2.297.312-2.297.312c-15.19 2.063-22.297 18.868-15.032 30.984l-21.817-8.283c-11.128-4.225-23.571 1.396-27.758 12.538l-3.45 9.184-3.45-9.184c-4.187-11.143-16.63-16.763-27.758-12.538l-21.817 8.283c7.265-12.116.158-28.921-15.032-30.984L30.146 100l2.297-.312c15.19-2.063 22.297-18.868 15.032-30.984l21.817 8.283C80.42 81.212 92.863 75.592 97.05 64.45l3.45-9.184 3.45 9.184c4.187 11.142 16.63 16.763 27.758 12.538l21.817-8.283Z"/><path clip-path="url(#dddivided-clip2)" d="M153.525 68.704c-7.265 12.116-.158 28.921 15.032 30.984l2.297.312-2.297.312c-15.19 2.063-22.297 18.868-15.032 30.984l-21.817-8.283c-11.128-4.225-23.571 1.396-27.758 12.538l-3.45 9.184-3.45-9.184c-4.187-11.143-16.63-16.763-27.758-12.538l-21.817 8.283c7.265-12.116.158-28.921-15.032-30.984L30.146 100l2.297-.312c15.19-2.063 22.297-18.868 15.032-30.984l21.817 8.283C80.42 81.212 92.863 75.592 97.05 64.45l3.45-9.184 3.45 9.184c4.187 11.142 16.63 16.763 27.758 12.538l21.817-8.283Z"/>
</svg>